<svg height="512" viewBox="0 0 74 74" width="512" xmlns="http://www.w3.org/2000/svg"><g id="color_line" data-name="color line"><rect fill="#27ccbc" height="21.495" rx="2.337" width="31.811" x="21.095" y="8.948"/><path d="m63.137 49.325a7.863 7.863 0 0 0 -7.863 7.863 7.863 7.863 0 0 0 7.863 7.863 7.863 7.863 0 0 0 7.863-7.863 7.863 7.863 0 0 0 -7.863-7.863z" fill="#05afd6"/><path d="m37 49.325a7.863 7.863 0 0 0 -7.863 7.863 7.863 7.863 0 0 0 7.863 7.864 7.863 7.863 0 0 0 7.863-7.863 7.863 7.863 0 0 0 -7.863-7.864z" fill="#fe7058"/><path d="m10.863 49.325a7.863 7.863 0 0 0 -7.863 7.863 7.863 7.863 0 0 0 7.863 7.863 7.863 7.863 0 0 0 7.863-7.863 7.863 7.863 0 0 0 -7.863-7.863z" fill="#fcd462"/><path d="m52.91 11.29v16.82a2.334 2.334 0 0 1 -2.34 2.33h-.29v-16.39a2.337 2.337 0 0 0 -2.34-2.34h-26.85v-.42a2.337 2.337 0 0 1 2.34-2.34h27.14a2.337 2.337 0 0 1 2.34 2.34z" fill="#21b3a9"/><path d="m71 57.19a7.863 7.863 0 0 1 -2.3 5.56 8.431 8.431 0 0 1 -1.02.86 7.756 7.756 0 0 0 1.2-4.16 7.87 7.87 0 0 0 -7.87-7.87 7.764 7.764 0 0 0 -4.55 1.46 7.861 7.861 0 0 1 14.54 4.15z" fill="#27a2db"/><path d="m44.86 57.19a7.863 7.863 0 0 1 -2.3 5.56 8.332 8.332 0 0 1 -1.01.86 7.862 7.862 0 0 0 -6.67-12.03h-.01a7.883 7.883 0 0 0 -4.54 1.44 7.862 7.862 0 0 1 14.53 4.17z" fill="#ea6453"/><path d="m18.73 57.19a7.863 7.863 0 0 1 -2.3 5.56 7.722 7.722 0 0 1 -1.02.86 7.862 7.862 0 0 0 -6.67-12.03 7.938 7.938 0 0 0 -4.55 1.44 7.868 7.868 0 0 1 14.54 4.17z" fill="#f7be56"/><g fill="#323c6b"><path d="m63.137 49.825a.5.5 0 0 1 -.5-.5v-7.886a2.24 2.24 0 0 0 -2.237-2.239h-46.8a2.24 2.24 0 0 0 -2.238 2.238v7.886a.5.5 0 0 1 -1 0v-7.885a3.242 3.242 0 0 1 3.238-3.239h46.8a3.242 3.242 0 0 1 3.238 3.238v7.886a.5.5 0 0 1 -.501.501z"/><path d="m37 49.825a.5.5 0 0 1 -.5-.5v-18.881a.5.5 0 0 1 1 0v18.881a.5.5 0 0 1 -.5.5z"/><path d="m47.224 16.6h-20.448a.5.5 0 0 1 0-1h20.448a.5.5 0 0 1 0 1z"/><path d="m47.224 23.787h-20.448a.5.5 0 0 1 0-1h20.448a.5.5 0 0 1 0 1z"/><path d="m18.175 11a.556.556 0 0 1 -.075-.005.5.5 0 0 1 -.42-.568 5.862 5.862 0 0 1 5.752-4.978h1.443a.5.5 0 0 1 0 1h-1.443a4.857 4.857 0 0 0 -4.764 4.125.5.5 0 0 1 -.493.426z"/><path d="m28.25 6.448h-.687a.5.5 0 0 1 0-1h.688a.5.5 0 0 1 0 1z"/><path d="m65.875 68.2a.5.5 0 0 1 -.126-.984 10.321 10.321 0 0 0 7.2-6.811.5.5 0 1 1 .949.313 11.314 11.314 0 0 1 -7.898 7.467.512.512 0 0 1 -.125.015z"/><path d="m63.137 68.552c-.078 0-.156 0-.234-.01a.527.527 0 0 1 -.5-.533.466.466 0 0 1 .5-.469h.064a2.909 2.909 0 0 0 .363 0l.147-.007a.474.474 0 0 1 .519.481.5.5 0 0 1 -.481.518l-.127.006c-.081.009-.165.014-.251.014z"/><path d="m50.568 30.944h-27.136a2.84 2.84 0 0 1 -2.837-2.837v-16.821a2.84 2.84 0 0 1 2.837-2.837h27.136a2.84 2.84 0 0 1 2.837 2.837v16.82a2.84 2.84 0 0 1 -2.837 2.838zm-27.136-21.496a1.839 1.839 0 0 0 -1.837 1.837v16.821a1.839 1.839 0 0 0 1.837 1.837h27.136a1.839 1.839 0 0 0 1.837-1.837v-16.82a1.839 1.839 0 0 0 -1.837-1.837z"/><path d="m63.137 65.552a8.364 8.364 0 1 1 8.363-8.364 8.373 8.373 0 0 1 -8.363 8.364zm0-15.727a7.364 7.364 0 1 0 7.363 7.363 7.371 7.371 0 0 0 -7.363-7.363z"/><path d="m37 65.552a8.364 8.364 0 1 1 8.363-8.364 8.373 8.373 0 0 1 -8.363 8.364zm0-15.727a7.364 7.364 0 1 0 7.363 7.363 7.371 7.371 0 0 0 -7.363-7.363z"/><path d="m10.863 65.552a8.364 8.364 0 1 1 8.363-8.364 8.373 8.373 0 0 1 -8.363 8.364zm0-15.727a7.364 7.364 0 1 0 7.363 7.363 7.371 7.371 0 0 0 -7.363-7.363z"/></g><path d="m37.419 27.665h-7.138a.6.6 0 1 1 0-1.2h7.138a.6.6 0 1 1 0 1.2z" fill="#fff"/><path d="m39.813 27.688h-.256a.6.6 0 1 1 0-1.2h.256a.6.6 0 1 1 0 1.2z" fill="#fff"/></g></svg>